<svg width="25" height="25" viewBox="0 0 25 25" fill="none" xmlns="http://www.w3.org/2000/svg">
<path d="M9.02618 16.3906C9.28139 16.5708 9.58555 16.6666 9.89701 16.6656V16.6614C10.1911 16.6622 10.4789 16.5765 10.7247 16.415C10.9704 16.2535 11.1633 16.0233 11.2793 15.7531L11.9178 13.8114C12.0652 13.3715 12.313 12.972 12.6415 12.6444C12.97 12.3168 13.3702 12.0701 13.8106 11.9239L15.6626 11.3218C15.9615 11.2175 16.2198 11.0215 16.4006 10.7617C16.5814 10.5019 16.6755 10.1916 16.6695 9.87514C16.6635 9.55866 16.5577 9.25217 16.3671 8.99941C16.1766 8.74666 15.9111 8.56056 15.6085 8.46767L13.7803 7.87393C13.3382 7.72656 12.9365 7.47822 12.6071 7.14861C12.2777 6.81899 12.0296 6.41716 11.8824 5.97497L11.2803 4.12393C11.1753 3.82911 10.9811 3.57432 10.7247 3.39496C10.4682 3.2156 10.1622 3.12058 9.84928 3.1231C9.53633 3.12562 9.23194 3.22555 8.97839 3.40902C8.72485 3.59249 8.53475 3.85037 8.43451 4.14684L7.82722 6.01351C7.68057 6.44284 7.43846 6.83332 7.11911 7.15556C6.79975 7.47781 6.41146 7.72342 5.98347 7.87393L4.13243 8.46767C3.83534 8.57047 3.57792 8.76377 3.39635 9.02041C3.21479 9.27705 3.11819 9.58413 3.12015 9.8985C3.1221 10.2129 3.2225 10.5187 3.40725 10.7731C3.59199 11.0275 3.85179 11.2175 4.15014 11.3166L5.97722 11.9093C6.41927 12.0577 6.82081 12.3068 7.15017 12.6369C7.47953 12.967 7.72771 13.369 7.87514 13.8114L8.47722 15.6604C8.58035 15.9552 8.77201 16.2104 9.02618 16.3906ZM17.0126 21.6468C16.8139 21.5052 16.6645 21.3049 16.5856 21.0739L16.2439 20.026C16.1776 19.8265 16.0659 19.6452 15.9174 19.4964C15.769 19.3476 15.588 19.2354 15.3887 19.1687L14.3564 18.8323C14.1202 18.7523 13.915 18.6006 13.7691 18.3984C13.6233 18.1961 13.5442 17.9535 13.5428 17.7041C13.5425 17.4563 13.6198 17.2145 13.7639 17.0127C13.9079 16.811 14.1114 16.6594 14.346 16.5791L15.3939 16.2396C15.5888 16.1703 15.7653 16.0573 15.9097 15.9092C16.0542 15.7611 16.1628 15.582 16.2272 15.3854L16.5647 14.3531C16.6441 14.1195 16.7941 13.9164 16.994 13.7717C17.1939 13.6271 17.4337 13.5481 17.6804 13.5457C17.9271 13.5433 18.1684 13.6176 18.3711 13.7583C18.5737 13.899 18.7277 14.0992 18.8116 14.3312L19.1543 15.3875C19.2214 15.5855 19.3334 15.7652 19.4816 15.9127C19.6298 16.0602 19.8101 16.1713 20.0085 16.2375L21.0418 16.5739C21.28 16.6484 21.4887 16.796 21.6383 16.9958C21.788 17.1955 21.8709 17.4373 21.8754 17.6869C21.8799 17.9364 21.8057 18.181 21.6634 18.3861C21.5211 18.5911 21.3178 18.7461 21.0824 18.8291L20.0262 19.1718C19.8276 19.2389 19.6472 19.3511 19.4994 19.4997C19.3515 19.6483 19.2402 19.8292 19.1741 20.0281L18.8387 21.0583C18.7574 21.2979 18.6033 21.5062 18.396 21.652C18.1937 21.7958 17.9516 21.8726 17.7035 21.8717C17.4554 21.8707 17.2138 21.7921 17.0126 21.6468Z" fill="#2196F3"/>
</svg>
