<svg width="38" height="38" viewBox="0 0 38 38" fill="none" xmlns="http://www.w3.org/2000/svg">
<path d="M28.5237 0C33.7573 -2.29341e-07 38 4.25332 38 9.50003C38 14.7455 33.7593 18.998 28.5274 19.0001C33.7593 19.0021 38 23.2545 38 28.5C38 33.7467 33.7573 38 28.5237 38C23.2901 38 19.0473 33.7467 19.0473 28.5C19.0473 28.9575 19.015 29.4074 18.9527 29.8476V38H0V19.0001H9.57112C4.3375 19.0001 0.0947969 14.7467 0.0947891 9.50003C0.0947887 4.25332 4.3375 4.15258e-07 9.57112 0C14.8047 2.12181e-05 19.0473 4.25333 19.0473 9.50003C19.0473 4.25333 23.2901 1.39879e-05 28.5237 0Z" fill="#121212"/>
</svg>
