<svg width="142" height="20" viewBox="0 0 142 20" fill="none" xmlns="http://www.w3.org/2000/svg">
<mask id="path-1-outside-1_456_7376" maskUnits="userSpaceOnUse" x="-0.5" y="-0.5" width="143" height="21" fill="black">
<rect fill="white" x="-0.5" y="-0.5" width="143" height="21"/>
<path d="M17.4032 18.3581C17.429 18.4355 17.4419 18.5086 17.4419 18.5774C17.4419 18.6979 17.4032 18.7925 17.3258 18.8613C17.2484 18.9215 17.1409 18.9516 17.0032 18.9516H14.4613C14.1688 18.9516 13.9753 18.814 13.8806 18.5387L12.7452 15.4935H5.18387L4.06129 18.5387C3.96667 18.814 3.77312 18.9516 3.48065 18.9516H0.951613C0.805376 18.9516 0.693548 18.9215 0.616129 18.8613C0.53871 18.7925 0.5 18.6979 0.5 18.5774C0.5 18.5086 0.512903 18.4355 0.53871 18.3581L7.27419 1.20968C7.37742 0.93441 7.57527 0.796775 7.86774 0.796775H10.0871C10.3882 0.796775 10.5903 0.93441 10.6935 1.20968L17.4032 18.3581ZM11.6871 12.4871L9.13226 5.57097L8.96452 4.97742L8.80968 5.57097L6.24194 12.4871H11.6871Z"/>
<path d="M23.3871 18.4355C23.3871 18.7796 23.2151 18.9516 22.871 18.9516H20.471C20.1269 18.9516 19.9549 18.7796 19.9549 18.4355V1.33871C19.9549 0.994625 20.1269 0.822582 20.471 0.822582H23.0904C23.357 0.822582 23.5635 0.930109 23.7097 1.14516L32.0839 13.0806V1.33871C32.0839 0.994625 32.256 0.822582 32.6001 0.822582H34.9871C35.3312 0.822582 35.5033 0.994625 35.5033 1.33871V18.4355C35.5033 18.7796 35.3312 18.9516 34.9871 18.9516H32.6517C32.5226 18.9516 32.4065 18.9258 32.3033 18.8742C32.2087 18.8226 32.1183 18.7409 32.0323 18.629L23.3871 6.31936V18.4355Z"/>
<path d="M40.3226 18.9516C39.9785 18.9516 39.8064 18.7796 39.8064 18.4355V1.33871C39.8064 0.994625 39.9785 0.822582 40.3226 0.822582H46.3484C48.086 0.822582 49.6774 1.22258 51.1226 2.02258C52.5677 2.81398 53.7118 3.90215 54.5548 5.2871C55.3979 6.67204 55.8194 8.20753 55.8194 9.89355C55.8194 11.5796 55.3979 13.1151 54.5548 14.5C53.7204 15.8763 52.5806 16.9645 51.1355 17.7645C49.6989 18.5559 48.1161 18.9516 46.3871 18.9516H40.3226ZM46.5032 15.5968C47.5871 15.5968 48.5677 15.3516 49.4452 14.8613C50.3226 14.371 51.0108 13.6914 51.5097 12.8226C52.0172 11.9538 52.271 10.9774 52.271 9.89355C52.271 8.80968 52.0172 7.83333 51.5097 6.96452C51.0022 6.0957 50.3054 5.41613 49.4194 4.92581C48.5333 4.42688 47.5484 4.17742 46.4645 4.17742H43.3032V15.5968H46.5032Z"/>
<path d="M73.0204 18.3581C73.0462 18.4355 73.0591 18.5086 73.0591 18.5774C73.0591 18.6979 73.0204 18.7925 72.943 18.8613C72.8656 18.9215 72.758 18.9516 72.6204 18.9516H70.0785C69.786 18.9516 69.5925 18.814 69.4978 18.5387L68.3624 15.4935H60.8011L59.6785 18.5387C59.5839 18.814 59.3903 18.9516 59.0978 18.9516H56.5688C56.4226 18.9516 56.3107 18.9215 56.2333 18.8613C56.1559 18.7925 56.1172 18.6979 56.1172 18.5774C56.1172 18.5086 56.1301 18.4355 56.1559 18.3581L62.8914 1.20968C62.9946 0.93441 63.1925 0.796775 63.4849 0.796775H65.7043C66.0054 0.796775 66.2075 0.93441 66.3107 1.20968L73.0204 18.3581ZM67.3043 12.4871L64.7494 5.57097L64.5817 4.97742L64.4269 5.57097L61.8591 12.4871H67.3043Z"/>
<path d="M78.1398 18.4613C78.0968 18.7882 77.9162 18.9516 77.5979 18.9516H75.0947C74.9226 18.9516 74.7936 18.9043 74.7076 18.8097C74.6215 18.7151 74.5871 18.5817 74.6043 18.4097L76.6947 1.3C76.7377 0.981721 76.9226 0.822582 77.2495 0.822582H80.2689C80.5699 0.822582 80.7592 0.964517 80.8366 1.24839L85.0559 14.0613L89.2624 1.24839C89.357 0.964517 89.5506 0.822582 89.843 0.822582H92.8624C93.0172 0.822582 93.142 0.865592 93.2366 0.951614C93.3398 1.02903 93.4 1.14516 93.4172 1.3L95.5076 18.4226C95.5248 18.5946 95.4904 18.728 95.4043 18.8226C95.3183 18.9172 95.1893 18.9645 95.0172 18.9645H92.514C92.1957 18.9645 92.0151 18.8011 91.9721 18.4742L90.7076 6.42258L86.7205 18.5258C86.6344 18.8097 86.4409 18.9516 86.1398 18.9516H83.9979C83.6968 18.9516 83.5076 18.8097 83.4301 18.5258L79.443 6.42258L78.1398 18.4613Z"/>
<path d="M102.342 18.4355C102.342 18.7796 102.17 18.9516 101.826 18.9516H99.3616C99.0176 18.9516 98.8455 18.7796 98.8455 18.4355V1.33871C98.8455 0.994625 99.0176 0.822582 99.3616 0.822582H101.826C102.17 0.822582 102.342 0.994625 102.342 1.33871V18.4355Z"/>
<path d="M107.166 18.9516C106.822 18.9516 106.65 18.7796 106.65 18.4355V1.33871C106.65 0.994625 106.822 0.822582 107.166 0.822582H114.134C115.364 0.822582 116.448 1.07634 117.386 1.58387C118.332 2.0828 119.063 2.78817 119.579 3.7C120.104 4.60323 120.366 5.64839 120.366 6.83548C120.366 8.03979 120.104 9.06774 119.579 9.91936C119.063 10.771 118.336 11.4376 117.399 11.9194L120.534 18.3452C120.577 18.4484 120.599 18.5344 120.599 18.6032C120.599 18.7065 120.56 18.7925 120.482 18.8613C120.405 18.9215 120.293 18.9516 120.147 18.9516H117.308C117.016 18.9516 116.814 18.8226 116.702 18.5645L114.044 12.8226C113.76 12.8484 113.472 12.8613 113.179 12.8613H110.147V18.4355C110.147 18.7796 109.975 18.9516 109.631 18.9516H107.166ZM113.811 9.75161C114.405 9.75161 114.93 9.63118 115.386 9.39032C115.842 9.14086 116.194 8.79677 116.444 8.35807C116.702 7.91075 116.831 7.40753 116.831 6.84839C116.831 6.25484 116.702 5.74301 116.444 5.3129C116.186 4.8828 115.829 4.55591 115.373 4.33226C114.925 4.1086 114.414 3.99678 113.837 3.99678H110.147V9.75161H113.811Z"/>
<path d="M131.624 19.2613C129.886 19.2613 128.299 18.8441 126.863 18.0097C125.435 17.1753 124.308 16.0398 123.482 14.6032C122.656 13.1667 122.243 11.5882 122.243 9.86774C122.243 8.13871 122.656 6.56022 123.482 5.13226C124.308 3.7043 125.435 2.57742 126.863 1.75161C128.299 0.917204 129.886 0.5 131.624 0.5C133.353 0.5 134.931 0.917204 136.359 1.75161C137.796 2.57742 138.927 3.7043 139.753 5.13226C140.587 6.56022 141.005 8.13871 141.005 9.86774C141.005 11.5882 140.587 13.1667 139.753 14.6032C138.927 16.0398 137.796 17.1753 136.359 18.0097C134.931 18.8441 133.353 19.2613 131.624 19.2613ZM131.624 15.9065C132.673 15.9065 133.641 15.6398 134.527 15.1065C135.422 14.5731 136.131 13.8462 136.656 12.9258C137.19 12.0054 137.456 10.9903 137.456 9.88065C137.456 8.76237 137.19 7.74301 136.656 6.82258C136.131 5.90215 135.422 5.17957 134.527 4.65484C133.633 4.12151 132.665 3.85484 131.624 3.85484C130.583 3.85484 129.615 4.12151 128.721 4.65484C127.826 5.17957 127.112 5.90215 126.579 6.82258C126.054 7.74301 125.792 8.76237 125.792 9.88065C125.792 10.9903 126.054 12.0054 126.579 12.9258C127.112 13.8462 127.826 14.5731 128.721 15.1065C129.615 15.6398 130.583 15.9065 131.624 15.9065Z"/>
</mask>
<path d="M17.4032 18.3581C17.429 18.4355 17.4419 18.5086 17.4419 18.5774C17.4419 18.6979 17.4032 18.7925 17.3258 18.8613C17.2484 18.9215 17.1409 18.9516 17.0032 18.9516H14.4613C14.1688 18.9516 13.9753 18.814 13.8806 18.5387L12.7452 15.4935H5.18387L4.06129 18.5387C3.96667 18.814 3.77312 18.9516 3.48065 18.9516H0.951613C0.805376 18.9516 0.693548 18.9215 0.616129 18.8613C0.53871 18.7925 0.5 18.6979 0.5 18.5774C0.5 18.5086 0.512903 18.4355 0.53871 18.3581L7.27419 1.20968C7.37742 0.93441 7.57527 0.796775 7.86774 0.796775H10.0871C10.3882 0.796775 10.5903 0.93441 10.6935 1.20968L17.4032 18.3581ZM11.6871 12.4871L9.13226 5.57097L8.96452 4.97742L8.80968 5.57097L6.24194 12.4871H11.6871Z" fill="white"/>
<path d="M23.3871 18.4355C23.3871 18.7796 23.2151 18.9516 22.871 18.9516H20.471C20.1269 18.9516 19.9549 18.7796 19.9549 18.4355V1.33871C19.9549 0.994625 20.1269 0.822582 20.471 0.822582H23.0904C23.357 0.822582 23.5635 0.930109 23.7097 1.14516L32.0839 13.0806V1.33871C32.0839 0.994625 32.256 0.822582 32.6001 0.822582H34.9871C35.3312 0.822582 35.5033 0.994625 35.5033 1.33871V18.4355C35.5033 18.7796 35.3312 18.9516 34.9871 18.9516H32.6517C32.5226 18.9516 32.4065 18.9258 32.3033 18.8742C32.2087 18.8226 32.1183 18.7409 32.0323 18.629L23.3871 6.31936V18.4355Z" fill="white"/>
<path d="M40.3226 18.9516C39.9785 18.9516 39.8064 18.7796 39.8064 18.4355V1.33871C39.8064 0.994625 39.9785 0.822582 40.3226 0.822582H46.3484C48.086 0.822582 49.6774 1.22258 51.1226 2.02258C52.5677 2.81398 53.7118 3.90215 54.5548 5.2871C55.3979 6.67204 55.8194 8.20753 55.8194 9.89355C55.8194 11.5796 55.3979 13.1151 54.5548 14.5C53.7204 15.8763 52.5806 16.9645 51.1355 17.7645C49.6989 18.5559 48.1161 18.9516 46.3871 18.9516H40.3226ZM46.5032 15.5968C47.5871 15.5968 48.5677 15.3516 49.4452 14.8613C50.3226 14.371 51.0108 13.6914 51.5097 12.8226C52.0172 11.9538 52.271 10.9774 52.271 9.89355C52.271 8.80968 52.0172 7.83333 51.5097 6.96452C51.0022 6.0957 50.3054 5.41613 49.4194 4.92581C48.5333 4.42688 47.5484 4.17742 46.4645 4.17742H43.3032V15.5968H46.5032Z" fill="white"/>
<path d="M73.0204 18.3581C73.0462 18.4355 73.0591 18.5086 73.0591 18.5774C73.0591 18.6979 73.0204 18.7925 72.943 18.8613C72.8656 18.9215 72.758 18.9516 72.6204 18.9516H70.0785C69.786 18.9516 69.5925 18.814 69.4978 18.5387L68.3624 15.4935H60.8011L59.6785 18.5387C59.5839 18.814 59.3903 18.9516 59.0978 18.9516H56.5688C56.4226 18.9516 56.3107 18.9215 56.2333 18.8613C56.1559 18.7925 56.1172 18.6979 56.1172 18.5774C56.1172 18.5086 56.1301 18.4355 56.1559 18.3581L62.8914 1.20968C62.9946 0.93441 63.1925 0.796775 63.4849 0.796775H65.7043C66.0054 0.796775 66.2075 0.93441 66.3107 1.20968L73.0204 18.3581ZM67.3043 12.4871L64.7494 5.57097L64.5817 4.97742L64.4269 5.57097L61.8591 12.4871H67.3043Z" fill="white"/>
<path d="M78.1398 18.4613C78.0968 18.7882 77.9162 18.9516 77.5979 18.9516H75.0947C74.9226 18.9516 74.7936 18.9043 74.7076 18.8097C74.6215 18.7151 74.5871 18.5817 74.6043 18.4097L76.6947 1.3C76.7377 0.981721 76.9226 0.822582 77.2495 0.822582H80.2689C80.5699 0.822582 80.7592 0.964517 80.8366 1.24839L85.0559 14.0613L89.2624 1.24839C89.357 0.964517 89.5506 0.822582 89.843 0.822582H92.8624C93.0172 0.822582 93.142 0.865592 93.2366 0.951614C93.3398 1.02903 93.4 1.14516 93.4172 1.3L95.5076 18.4226C95.5248 18.5946 95.4904 18.728 95.4043 18.8226C95.3183 18.9172 95.1893 18.9645 95.0172 18.9645H92.514C92.1957 18.9645 92.0151 18.8011 91.9721 18.4742L90.7076 6.42258L86.7205 18.5258C86.6344 18.8097 86.4409 18.9516 86.1398 18.9516H83.9979C83.6968 18.9516 83.5076 18.8097 83.4301 18.5258L79.443 6.42258L78.1398 18.4613Z" fill="white"/>
<path d="M102.342 18.4355C102.342 18.7796 102.17 18.9516 101.826 18.9516H99.3616C99.0176 18.9516 98.8455 18.7796 98.8455 18.4355V1.33871C98.8455 0.994625 99.0176 0.822582 99.3616 0.822582H101.826C102.17 0.822582 102.342 0.994625 102.342 1.33871V18.4355Z" fill="white"/>
<path d="M107.166 18.9516C106.822 18.9516 106.65 18.7796 106.65 18.4355V1.33871C106.65 0.994625 106.822 0.822582 107.166 0.822582H114.134C115.364 0.822582 116.448 1.07634 117.386 1.58387C118.332 2.0828 119.063 2.78817 119.579 3.7C120.104 4.60323 120.366 5.64839 120.366 6.83548C120.366 8.03979 120.104 9.06774 119.579 9.91936C119.063 10.771 118.336 11.4376 117.399 11.9194L120.534 18.3452C120.577 18.4484 120.599 18.5344 120.599 18.6032C120.599 18.7065 120.56 18.7925 120.482 18.8613C120.405 18.9215 120.293 18.9516 120.147 18.9516H117.308C117.016 18.9516 116.814 18.8226 116.702 18.5645L114.044 12.8226C113.76 12.8484 113.472 12.8613 113.179 12.8613H110.147V18.4355C110.147 18.7796 109.975 18.9516 109.631 18.9516H107.166ZM113.811 9.75161C114.405 9.75161 114.93 9.63118 115.386 9.39032C115.842 9.14086 116.194 8.79677 116.444 8.35807C116.702 7.91075 116.831 7.40753 116.831 6.84839C116.831 6.25484 116.702 5.74301 116.444 5.3129C116.186 4.8828 115.829 4.55591 115.373 4.33226C114.925 4.1086 114.414 3.99678 113.837 3.99678H110.147V9.75161H113.811Z" fill="white"/>
<path d="M131.624 19.2613C129.886 19.2613 128.299 18.8441 126.863 18.0097C125.435 17.1753 124.308 16.0398 123.482 14.6032C122.656 13.1667 122.243 11.5882 122.243 9.86774C122.243 8.13871 122.656 6.56022 123.482 5.13226C124.308 3.7043 125.435 2.57742 126.863 1.75161C128.299 0.917204 129.886 0.5 131.624 0.5C133.353 0.5 134.931 0.917204 136.359 1.75161C137.796 2.57742 138.927 3.7043 139.753 5.13226C140.587 6.56022 141.005 8.13871 141.005 9.86774C141.005 11.5882 140.587 13.1667 139.753 14.6032C138.927 16.0398 137.796 17.1753 136.359 18.0097C134.931 18.8441 133.353 19.2613 131.624 19.2613ZM131.624 15.9065C132.673 15.9065 133.641 15.6398 134.527 15.1065C135.422 14.5731 136.131 13.8462 136.656 12.9258C137.19 12.0054 137.456 10.9903 137.456 9.88065C137.456 8.76237 137.19 7.74301 136.656 6.82258C136.131 5.90215 135.422 5.17957 134.527 4.65484C133.633 4.12151 132.665 3.85484 131.624 3.85484C130.583 3.85484 129.615 4.12151 128.721 4.65484C127.826 5.17957 127.112 5.90215 126.579 6.82258C126.054 7.74301 125.792 8.76237 125.792 9.88065C125.792 10.9903 126.054 12.0054 126.579 12.9258C127.112 13.8462 127.826 14.5731 128.721 15.1065C129.615 15.6398 130.583 15.9065 131.624 15.9065Z" fill="white"/>
<path d="M17.4032 18.3581C17.429 18.4355 17.4419 18.5086 17.4419 18.5774C17.4419 18.6979 17.4032 18.7925 17.3258 18.8613C17.2484 18.9215 17.1409 18.9516 17.0032 18.9516H14.4613C14.1688 18.9516 13.9753 18.814 13.8806 18.5387L12.7452 15.4935H5.18387L4.06129 18.5387C3.96667 18.814 3.77312 18.9516 3.48065 18.9516H0.951613C0.805376 18.9516 0.693548 18.9215 0.616129 18.8613C0.53871 18.7925 0.5 18.6979 0.5 18.5774C0.5 18.5086 0.512903 18.4355 0.53871 18.3581L7.27419 1.20968C7.37742 0.93441 7.57527 0.796775 7.86774 0.796775H10.0871C10.3882 0.796775 10.5903 0.93441 10.6935 1.20968L17.4032 18.3581ZM11.6871 12.4871L9.13226 5.57097L8.96452 4.97742L8.80968 5.57097L6.24194 12.4871H11.6871Z" stroke="white" mask="url(#path-1-outside-1_456_7376)"/>
<path d="M23.3871 18.4355C23.3871 18.7796 23.2151 18.9516 22.871 18.9516H20.471C20.1269 18.9516 19.9549 18.7796 19.9549 18.4355V1.33871C19.9549 0.994625 20.1269 0.822582 20.471 0.822582H23.0904C23.357 0.822582 23.5635 0.930109 23.7097 1.14516L32.0839 13.0806V1.33871C32.0839 0.994625 32.256 0.822582 32.6001 0.822582H34.9871C35.3312 0.822582 35.5033 0.994625 35.5033 1.33871V18.4355C35.5033 18.7796 35.3312 18.9516 34.9871 18.9516H32.6517C32.5226 18.9516 32.4065 18.9258 32.3033 18.8742C32.2087 18.8226 32.1183 18.7409 32.0323 18.629L23.3871 6.31936V18.4355Z" stroke="white" mask="url(#path-1-outside-1_456_7376)"/>
<path d="M40.3226 18.9516C39.9785 18.9516 39.8064 18.7796 39.8064 18.4355V1.33871C39.8064 0.994625 39.9785 0.822582 40.3226 0.822582H46.3484C48.086 0.822582 49.6774 1.22258 51.1226 2.02258C52.5677 2.81398 53.7118 3.90215 54.5548 5.2871C55.3979 6.67204 55.8194 8.20753 55.8194 9.89355C55.8194 11.5796 55.3979 13.1151 54.5548 14.5C53.7204 15.8763 52.5806 16.9645 51.1355 17.7645C49.6989 18.5559 48.1161 18.9516 46.3871 18.9516H40.3226ZM46.5032 15.5968C47.5871 15.5968 48.5677 15.3516 49.4452 14.8613C50.3226 14.371 51.0108 13.6914 51.5097 12.8226C52.0172 11.9538 52.271 10.9774 52.271 9.89355C52.271 8.80968 52.0172 7.83333 51.5097 6.96452C51.0022 6.0957 50.3054 5.41613 49.4194 4.92581C48.5333 4.42688 47.5484 4.17742 46.4645 4.17742H43.3032V15.5968H46.5032Z" stroke="white" mask="url(#path-1-outside-1_456_7376)"/>
<path d="M73.0204 18.3581C73.0462 18.4355 73.0591 18.5086 73.0591 18.5774C73.0591 18.6979 73.0204 18.7925 72.943 18.8613C72.8656 18.9215 72.758 18.9516 72.6204 18.9516H70.0785C69.786 18.9516 69.5925 18.814 69.4978 18.5387L68.3624 15.4935H60.8011L59.6785 18.5387C59.5839 18.814 59.3903 18.9516 59.0978 18.9516H56.5688C56.4226 18.9516 56.3107 18.9215 56.2333 18.8613C56.1559 18.7925 56.1172 18.6979 56.1172 18.5774C56.1172 18.5086 56.1301 18.4355 56.1559 18.3581L62.8914 1.20968C62.9946 0.93441 63.1925 0.796775 63.4849 0.796775H65.7043C66.0054 0.796775 66.2075 0.93441 66.3107 1.20968L73.0204 18.3581ZM67.3043 12.4871L64.7494 5.57097L64.5817 4.97742L64.4269 5.57097L61.8591 12.4871H67.3043Z" stroke="white" mask="url(#path-1-outside-1_456_7376)"/>
<path d="M78.1398 18.4613C78.0968 18.7882 77.9162 18.9516 77.5979 18.9516H75.0947C74.9226 18.9516 74.7936 18.9043 74.7076 18.8097C74.6215 18.7151 74.5871 18.5817 74.6043 18.4097L76.6947 1.3C76.7377 0.981721 76.9226 0.822582 77.2495 0.822582H80.2689C80.5699 0.822582 80.7592 0.964517 80.8366 1.24839L85.0559 14.0613L89.2624 1.24839C89.357 0.964517 89.5506 0.822582 89.843 0.822582H92.8624C93.0172 0.822582 93.142 0.865592 93.2366 0.951614C93.3398 1.02903 93.4 1.14516 93.4172 1.3L95.5076 18.4226C95.5248 18.5946 95.4904 18.728 95.4043 18.8226C95.3183 18.9172 95.1893 18.9645 95.0172 18.9645H92.514C92.1957 18.9645 92.0151 18.8011 91.9721 18.4742L90.7076 6.42258L86.7205 18.5258C86.6344 18.8097 86.4409 18.9516 86.1398 18.9516H83.9979C83.6968 18.9516 83.5076 18.8097 83.4301 18.5258L79.443 6.42258L78.1398 18.4613Z" stroke="white" mask="url(#path-1-outside-1_456_7376)"/>
<path d="M102.342 18.4355C102.342 18.7796 102.17 18.9516 101.826 18.9516H99.3616C99.0176 18.9516 98.8455 18.7796 98.8455 18.4355V1.33871C98.8455 0.994625 99.0176 0.822582 99.3616 0.822582H101.826C102.17 0.822582 102.342 0.994625 102.342 1.33871V18.4355Z" stroke="white" mask="url(#path-1-outside-1_456_7376)"/>
<path d="M107.166 18.9516C106.822 18.9516 106.65 18.7796 106.65 18.4355V1.33871C106.65 0.994625 106.822 0.822582 107.166 0.822582H114.134C115.364 0.822582 116.448 1.07634 117.386 1.58387C118.332 2.0828 119.063 2.78817 119.579 3.7C120.104 4.60323 120.366 5.64839 120.366 6.83548C120.366 8.03979 120.104 9.06774 119.579 9.91936C119.063 10.771 118.336 11.4376 117.399 11.9194L120.534 18.3452C120.577 18.4484 120.599 18.5344 120.599 18.6032C120.599 18.7065 120.56 18.7925 120.482 18.8613C120.405 18.9215 120.293 18.9516 120.147 18.9516H117.308C117.016 18.9516 116.814 18.8226 116.702 18.5645L114.044 12.8226C113.76 12.8484 113.472 12.8613 113.179 12.8613H110.147V18.4355C110.147 18.7796 109.975 18.9516 109.631 18.9516H107.166ZM113.811 9.75161C114.405 9.75161 114.93 9.63118 115.386 9.39032C115.842 9.14086 116.194 8.79677 116.444 8.35807C116.702 7.91075 116.831 7.40753 116.831 6.84839C116.831 6.25484 116.702 5.74301 116.444 5.3129C116.186 4.8828 115.829 4.55591 115.373 4.33226C114.925 4.1086 114.414 3.99678 113.837 3.99678H110.147V9.75161H113.811Z" stroke="white" mask="url(#path-1-outside-1_456_7376)"/>
<path d="M131.624 19.2613C129.886 19.2613 128.299 18.8441 126.863 18.0097C125.435 17.1753 124.308 16.0398 123.482 14.6032C122.656 13.1667 122.243 11.5882 122.243 9.86774C122.243 8.13871 122.656 6.56022 123.482 5.13226C124.308 3.7043 125.435 2.57742 126.863 1.75161C128.299 0.917204 129.886 0.5 131.624 0.5C133.353 0.5 134.931 0.917204 136.359 1.75161C137.796 2.57742 138.927 3.7043 139.753 5.13226C140.587 6.56022 141.005 8.13871 141.005 9.86774C141.005 11.5882 140.587 13.1667 139.753 14.6032C138.927 16.0398 137.796 17.1753 136.359 18.0097C134.931 18.8441 133.353 19.2613 131.624 19.2613ZM131.624 15.9065C132.673 15.9065 133.641 15.6398 134.527 15.1065C135.422 14.5731 136.131 13.8462 136.656 12.9258C137.19 12.0054 137.456 10.9903 137.456 9.88065C137.456 8.76237 137.19 7.74301 136.656 6.82258C136.131 5.90215 135.422 5.17957 134.527 4.65484C133.633 4.12151 132.665 3.85484 131.624 3.85484C130.583 3.85484 129.615 4.12151 128.721 4.65484C127.826 5.17957 127.112 5.90215 126.579 6.82258C126.054 7.74301 125.792 8.76237 125.792 9.88065C125.792 10.9903 126.054 12.0054 126.579 12.9258C127.112 13.8462 127.826 14.5731 128.721 15.1065C129.615 15.6398 130.583 15.9065 131.624 15.9065Z" stroke="white" mask="url(#path-1-outside-1_456_7376)"/>
</svg>
