<svg width="23" height="23" viewBox="0 0 23 23" fill="none" xmlns="http://www.w3.org/2000/svg">
<path fill-rule="evenodd" clip-rule="evenodd" d="M11.1979 0C5.01354 0 0 5.01354 0 11.1979C0 13.1312 0.490625 14.9531 1.35417 16.5417L0.534375 20.951C0.511306 21.0756 0.518894 21.204 0.556484 21.325C0.594074 21.446 0.660538 21.5561 0.750144 21.6457C0.839749 21.7353 0.949807 21.8018 1.07082 21.8393C1.19184 21.8769 1.32019 21.8845 1.44479 21.8615L5.85417 21.0406C7.49383 21.9327 9.33129 22.3987 11.1979 22.3958C17.3823 22.3958 22.3958 17.3823 22.3958 11.1979C22.3958 5.01354 17.3823 0 11.1979 0ZM16.4062 9.89583C16.0609 9.89583 15.7297 10.033 15.4855 10.2772C15.2413 10.5214 15.1042 10.8526 15.1042 11.1979C15.1042 11.5433 15.2413 11.8744 15.4855 12.1186C15.7297 12.3628 16.0609 12.5 16.4062 12.5C16.7516 12.5 17.0828 12.3628 17.327 12.1186C17.5711 11.8744 17.7083 11.5433 17.7083 11.1979C17.7083 10.8526 17.5711 10.5214 17.327 10.2772C17.0828 10.033 16.7516 9.89583 16.4062 9.89583ZM9.89583 11.1979C9.89583 10.8526 10.033 10.5214 10.2772 10.2772C10.5214 10.033 10.8526 9.89583 11.1979 9.89583C11.5433 9.89583 11.8744 10.033 12.1186 10.2772C12.3628 10.5214 12.5 10.8526 12.5 11.1979C12.5 11.5433 12.3628 11.8744 12.1186 12.1186C11.8744 12.3628 11.5433 12.5 11.1979 12.5C10.8526 12.5 10.5214 12.3628 10.2772 12.1186C10.033 11.8744 9.89583 11.5433 9.89583 11.1979ZM5.98958 9.89583C5.64425 9.89583 5.31306 10.033 5.06887 10.2772C4.82468 10.5214 4.6875 10.8526 4.6875 11.1979C4.6875 11.5433 4.82468 11.8744 5.06887 12.1186C5.31306 12.3628 5.64425 12.5 5.98958 12.5C6.33492 12.5 6.66611 12.3628 6.9103 12.1186C7.15448 11.8744 7.29167 11.5433 7.29167 11.1979C7.29167 10.8526 7.15448 10.5214 6.9103 10.2772C6.66611 10.033 6.33492 9.89583 5.98958 9.89583Z" fill="#FFA014"/>
</svg>
