<svg width="25" height="25" viewBox="0 0 25 25" fill="none" xmlns="http://www.w3.org/2000/svg">
<g clip-path="url(#clip0_396_353)">
<path d="M6.24996 2.604C8.10204 2.604 9.83121 2.97796 11.1354 3.629C11.6239 3.8738 12.0989 4.1863 12.4979 4.56338C12.6312 4.43768 12.7704 4.31998 12.9156 4.21025L13.7489 3.58317L15 5.24984L14.1666 5.87484C13.6531 6.26025 13.5416 6.58317 13.5416 6.77067V19.9478C13.6479 19.8873 13.7555 19.8297 13.8645 19.7748C15.1698 19.1228 16.8989 18.7498 18.75 18.7498C19.8593 18.7498 20.9218 18.8853 21.875 19.1311V9.37484H23.9583V22.1946L22.4916 21.5384C21.5416 21.1134 20.2312 20.8332 18.75 20.8332C17.151 20.8332 15.7541 21.1603 14.7958 21.6384C13.776 22.1488 13.5416 22.6603 13.5416 22.9165H11.4583C11.4583 22.6603 11.2239 22.1488 10.2041 21.6384C9.24579 21.1592 7.84996 20.8332 6.24996 20.8332C4.76975 20.8332 3.45829 21.1134 2.50829 21.5384L1.04163 22.1946V3.92692C1.27913 3.74463 1.39267 3.65192 1.501 3.57692C1.56558 3.53213 1.67079 3.4665 1.82183 3.38942C2.02392 3.2863 2.30933 3.16442 2.69058 3.04775C3.45308 2.81442 4.59892 2.604 6.24996 2.604Z" fill="#7AC47D"/>
<path d="M21.3875 3.6113L24.5521 4.94775L21.3886 6.28317L20.0521 9.44775L18.7157 6.28421L15.5521 4.94775L18.7146 3.6113L20.0521 0.447754L21.3875 3.6113Z" fill="#7AC47D"/>
</g>
<defs>
<clipPath id="clip0_396_353">
<rect width="25" height="25" fill="white"/>
</clipPath>
</defs>
</svg>
