<svg width="512" height="512" viewBox="0 0 512 512" fill="none" xmlns="http://www.w3.org/2000/svg">
<rect width="512" height="512" fill="white"/>
<path d="M325.153 116.622C362.363 116.622 392.815 145.637 395.224 182.329H329.671C327.943 182.329 326.542 183.73 326.542 185.458V191.716C326.543 193.444 327.943 194.845 329.671 194.845H394.948C391.067 230.035 361.315 257.409 325.181 257.423C363.952 257.438 395.377 288.951 395.377 327.822C395.377 332.807 394.859 337.67 393.876 342.361C393.402 342.072 392.845 341.902 392.248 341.902H323.413C321.685 341.902 320.285 343.303 320.285 345.031V351.289C320.285 353.017 321.686 354.418 323.413 354.418H390.194C379.728 380.114 354.549 398.222 325.153 398.222C290.561 396.539 271.577 382.571 261.813 363.97C255.965 349.743 255.965 340.184 256.96 324.694C257.037 323.494 257.17 322.135 257.327 320.765C257.917 315.598 261.939 311.554 267.054 310.62C267.08 310.616 267.107 310.613 267.133 310.613H322.166C323.894 310.613 325.295 309.213 325.295 307.485V301.227C325.295 299.499 323.894 298.098 322.166 298.098H264.9C257.72 298.098 252.175 304.059 251.767 311.228C251.598 314.186 251.506 317.425 251.469 320.746C251.461 321.01 251.454 321.283 251.449 321.565C251.389 324.521 251.441 328.362 251.511 331.567C251.554 334.131 251.617 336.617 251.687 338.93V398.222H113.778V257.423H184.704C145.921 257.423 114.48 225.903 114.48 187.023C114.48 148.142 145.921 116.622 184.704 116.622C223.488 116.622 254.928 148.142 254.928 187.023C254.928 148.142 286.369 116.623 325.153 116.622Z" fill="url(#paint0_linear_523_2721)"/>
<defs>
<linearGradient id="paint0_linear_523_2721" x1="254.578" y1="138.702" x2="162.418" y2="461.582" gradientUnits="userSpaceOnUse">
<stop stop-color="#3D78F3"/>
</linearGradient>
</defs>
</svg>
